<svg width="38" height="38" viewBox="0 0 38 38" fill="none" xmlns="http://www.w3.org/2000/svg">
<path d="M12.5022 7.57271V2.64318C12.5022 1.73943 13.2416 1 14.1454 1H24.0044C24.9082 1 25.6476 1.73943 25.6476 2.64318V7.57271" stroke="#A4A4A4" stroke-width="1.3" stroke-miterlimit="10" stroke-linecap="round" stroke-linejoin="round"/>
<path d="M14.1454 24.0045H1V9.21587C1 8.31212 1.73943 7.57269 2.64318 7.57269H35.5067C36.4105 7.57269 37.1499 8.31212 37.1499 9.21587V24.0045H24.0045" stroke="#A4A4A4" stroke-width="1.3" stroke-miterlimit="10" stroke-linecap="round" stroke-linejoin="round"/>
<path d="M35.5067 28.934V35.5067C35.5067 36.4105 34.7673 37.1499 33.8636 37.1499H4.28637C3.38262 37.1499 2.64319 36.4105 2.64319 35.5067V28.934" stroke="#A4A4A4" stroke-width="1.3" stroke-miterlimit="10" stroke-linecap="round" stroke-linejoin="round"/>
<path d="M24.0045 20.7181H14.1454V27.2908H24.0045V20.7181Z" stroke="#A4A4A4" stroke-width="1.3" stroke-miterlimit="10" stroke-linecap="round" stroke-linejoin="round"/>
</svg>
