<svg width="40" height="33" viewBox="0 0 40 33" fill="none" xmlns="http://www.w3.org/2000/svg">
<path d="M24.0045 27.2908L22.8542 30.7251C22.5749 31.5632 21.6876 32.0232 20.8496 31.7931L12.6173 29.4434C11.6806 29.1805 11.1876 28.1617 11.5491 27.258L12.5187 24.8425" stroke="#A4A4A4" stroke-width="1.3" stroke-miterlimit="10" stroke-linejoin="round"/>
<path d="M35.0302 1.47649L33.8635 2.64318L5.92953 10.8591H2.64318C1.73943 10.8591 1 11.5985 1 12.5022V20.7181C1 21.6219 1.73943 22.3613 2.64318 22.3613H5.92953L33.8635 30.5772L35.0302 31.7439C35.3424 32.0561 35.7532 32.2204 36.1968 32.2204H37.1664C38.0701 32.2204 38.8095 31.4809 38.8095 30.5772V2.64318C38.8095 1.73943 38.0701 1 37.1664 1H36.1968C35.7532 1 35.326 1.18071 35.0302 1.47649Z" stroke="#A4A4A4" stroke-width="1.3" stroke-miterlimit="10" stroke-linecap="round" stroke-linejoin="round"/>
<path d="M5.92953 10.8591V22.3613" stroke="#A4A4A4" stroke-width="1.3" stroke-miterlimit="10" stroke-linecap="round" stroke-linejoin="round"/>
</svg>
