<svg width="40" height="40" viewBox="0 0 40 40" fill="none" xmlns="http://www.w3.org/2000/svg">
<path d="M14.1454 25.6477C15.9604 25.6477 17.4318 24.1763 17.4318 22.3613C17.4318 20.5463 15.9604 19.075 14.1454 19.075C12.3304 19.075 10.8591 20.5463 10.8591 22.3613C10.8591 24.1763 12.3304 25.6477 14.1454 25.6477Z" stroke="#A4A4A4" stroke-width="1.3" stroke-miterlimit="10" stroke-linecap="round" stroke-linejoin="round"/>
<path d="M27.2908 32.2204C29.1058 32.2204 30.5772 30.749 30.5772 28.934C30.5772 27.119 29.1058 25.6476 27.2908 25.6476C25.4758 25.6476 24.0045 27.119 24.0045 28.934C24.0045 30.749 25.4758 32.2204 27.2908 32.2204Z" stroke="#A4A4A4" stroke-width="1.3" stroke-miterlimit="10" stroke-linecap="round" stroke-linejoin="round"/>
<path d="M37.1499 14.1454L28.8683 26.042" stroke="#A4A4A4" stroke-width="1.3" stroke-miterlimit="10" stroke-linecap="round" stroke-linejoin="round"/>
<path d="M24.3496 27.4715L17.0867 23.8237" stroke="#A4A4A4" stroke-width="1.3" stroke-miterlimit="10" stroke-linecap="round" stroke-linejoin="round"/>
<path d="M12.0914 24.9247L1 38.7931" stroke="#A4A4A4" stroke-width="1.3" stroke-miterlimit="10" stroke-linecap="round" stroke-linejoin="round"/>
<path d="M1 1V38.7931" stroke="#A4A4A4" stroke-width="1.3" stroke-miterlimit="10" stroke-linecap="round" stroke-linejoin="round"/>
<path d="M38.7931 38.793H1" stroke="#A4A4A4" stroke-width="1.3" stroke-miterlimit="10" stroke-linecap="round" stroke-linejoin="round"/>
<path d="M30.5772 15.7886L37.1499 14.1454L38.7931 20.7182" stroke="#A4A4A4" stroke-width="1.3" stroke-miterlimit="10" stroke-linecap="round" stroke-linejoin="round"/>
</svg>
