<svg width="40" height="40" viewBox="0 0 40 40" fill="none" xmlns="http://www.w3.org/2000/svg">
<path d="M7.57272 24.0045H9.2159V14.1454H7.57272C4.84505 14.1454 2.64319 16.3473 2.64319 19.075C2.64319 21.8027 4.84505 24.0045 7.57272 24.0045Z" stroke="#A4A4A4" stroke-width="1.3" stroke-miterlimit="10" stroke-linecap="round" stroke-linejoin="round"/>
<path d="M33.8636 24.0045H32.2204V14.1454H33.8636C36.5912 14.1454 38.7931 16.3473 38.7931 19.075C38.7931 21.8027 36.5912 24.0045 33.8636 24.0045Z" stroke="#A4A4A4" stroke-width="1.3" stroke-miterlimit="10" stroke-linecap="round" stroke-linejoin="round"/>
<path d="M9.21588 14.1454V10.8591C9.21588 5.42015 15.2792 1 20.7181 1C26.157 1 32.2204 5.42015 32.2204 10.8591V14.1454" stroke="#A4A4A4" stroke-width="1.3" stroke-miterlimit="10" stroke-linecap="round" stroke-linejoin="round"/>
<path d="M32.2204 24.0045C32.2204 27.6195 28.934 30.5772 25.6477 30.5772" stroke="#A4A4A4" stroke-width="1.3" stroke-miterlimit="10" stroke-linecap="round" stroke-linejoin="round"/>
<path d="M34.34 31.3659C34.9316 31.7931 35.4739 32.2533 35.9669 32.7462C37.7579 34.5044 38.7931 36.5748 38.7931 38.7931" stroke="#A4A4A4" stroke-width="1.3" stroke-miterlimit="10" stroke-linecap="round" stroke-linejoin="round"/>
<path d="M1 38.7931C1 33.9457 5.91305 29.8049 12.8637 28.1288" stroke="#A4A4A4" stroke-width="1.3" stroke-miterlimit="10" stroke-linecap="round" stroke-linejoin="round"/>
<path d="M24.0045 32.2204H20.7181C19.8144 32.2204 19.075 31.4809 19.075 30.5772C19.075 29.6735 19.8144 28.934 20.7181 28.934H24.0045C24.9082 28.934 25.6477 29.6735 25.6477 30.5772C25.6477 31.4809 24.9082 32.2204 24.0045 32.2204Z" stroke="#A4A4A4" stroke-width="1.3" stroke-miterlimit="10" stroke-linecap="round" stroke-linejoin="round"/>
</svg>
