<svg width="40" height="27" viewBox="0 0 40 27" fill="none" xmlns="http://www.w3.org/2000/svg">
<path d="M32.2204 25.6476H2.64318C1.73943 25.6476 1 24.9082 1 24.0045V7.57268C1 6.66893 1.73943 5.9295 2.64318 5.9295H32.2204C33.1241 5.9295 33.8635 6.66893 33.8635 7.57268V24.0045C33.8635 24.9082 33.1241 25.6476 32.2204 25.6476Z" stroke="#A4A4A4" stroke-width="1.3" stroke-miterlimit="10" stroke-linecap="round" stroke-linejoin="round"/>
<path d="M33.8635 20.7181H37.1499C38.0536 20.7181 38.7931 19.9787 38.7931 19.075V2.64318C38.7931 1.73943 38.0536 1 37.1499 1H7.57268C6.66893 1 5.9295 1.73943 5.9295 2.64318V5.92953" stroke="#A4A4A4" stroke-width="1.3" stroke-miterlimit="10" stroke-linecap="round" stroke-linejoin="round"/>
<path d="M17.4317 20.7181C20.1542 20.7181 22.3613 18.5111 22.3613 15.7886C22.3613 13.0661 20.1542 10.8591 17.4317 10.8591C14.7092 10.8591 12.5022 13.0661 12.5022 15.7886C12.5022 18.5111 14.7092 20.7181 17.4317 20.7181Z" stroke="#A4A4A4" stroke-width="1.3" stroke-miterlimit="10" stroke-linecap="round" stroke-linejoin="round"/>
</svg>
