<svg width="38" height="38" viewBox="0 0 38 38" fill="none" xmlns="http://www.w3.org/2000/svg">
<path d="M6.83074 27.2856C5.61478 27.6636 4.43157 28.3702 3.4128 29.3725C2.39403 30.3913 1.70386 31.5743 1.32593 32.7902C0.948 34.0062 0.898761 35.2549 1.1781 36.3887C2.31189 36.6681 3.56081 36.6188 4.77676 36.2409C5.99272 35.863 7.17573 35.1564 8.1945 34.154C9.21327 33.1352 9.90344 31.9522 10.2814 30.7363" stroke="#A4A4A4" stroke-width="1.3" stroke-miterlimit="10" stroke-linecap="round" stroke-linejoin="round"/>
<path d="M6.97858 16.6378L2.32846 21.2879H6.97858C11.1523 22.849 14.3401 25.8232 16.279 30.5884V35.2385L20.9291 30.5884L18.6122 23.6213C24.2319 23.227 29.0464 21.2221 32.5628 16.6541C35.882 12.0532 36.95 6.99229 36.0463 1.55337C30.2787 0.222395 25.2014 1.25759 20.9456 5.0369C16.8212 9.35845 14.4879 14.0086 13.9785 18.9875L6.97858 16.6378Z" stroke="#A4A4A4" stroke-width="1.3" stroke-miterlimit="10" stroke-linecap="round" stroke-linejoin="round"/>
<path d="M27.8962 12.9569C29.7112 12.9569 31.1825 11.4856 31.1825 9.67057C31.1825 7.85557 29.7112 6.38422 27.8962 6.38422C26.0812 6.38422 24.6098 7.85557 24.6098 9.67057C24.6098 11.4856 26.0812 12.9569 27.8962 12.9569Z" stroke="#A4A4A4" stroke-width="1.3" stroke-miterlimit="10" stroke-linecap="round" stroke-linejoin="round"/>
</svg>
