<svg width="32" height="40" viewBox="0 0 32 40" fill="none" xmlns="http://www.w3.org/2000/svg">
<path d="M15.7886 1C11.7299 4.28635 6.6361 4.99292 1 4.28635V16.8403C1 23.4294 4.03991 29.6571 9.24878 33.6993L15.7886 38.7931L22.3284 33.6993C27.5373 29.6571 30.5772 23.4294 30.5772 16.8403V4.28635C24.9411 4.99292 19.8472 4.28635 15.7886 1Z" stroke="#A4A4A4" stroke-width="1.3" stroke-miterlimit="10" stroke-linecap="round" stroke-linejoin="round"/>
<path d="M15.7886 6.09381C12.8309 8.49285 10.0539 9.72527 5.92953 9.21589V17.0703C5.92953 21.4576 7.8849 25.6148 11.2534 28.4246L15.7886 32.2039L20.3238 28.4246C23.6923 25.6148 25.6477 21.4576 25.6477 17.0703V9.21589C21.5233 9.72527 18.7463 8.49285 15.7886 6.09381Z" stroke="#A4A4A4" stroke-width="1.3" stroke-miterlimit="10" stroke-linecap="round" stroke-linejoin="round"/>
</svg>
