<?xml version="1.0" encoding="utf-8"?><svg xmlns="http://www.w3.org/2000/svg" xmlns:xlink="http://www.w3.org/1999/xlink"><symbol fill="none" viewBox="0 0 33 36" id="icons--bell" xmlns="http://www.w3.org/2000/svg"><path d="M28.112 19.567V12.14C28.112 6.347 23.02 1 16.61 1 10.202 1 5.108 6.347 5.108 12.14v7.427C5.108 25.51 1 30.707 1 30.707h31.22s-4.108-5.198-4.108-11.14z" stroke="#A4A4A4" stroke-width="1.3" stroke-miterlimit="10" stroke-linecap="round" stroke-linejoin="round"/><path d="M16.61 35.163c-2.267 0-4.108-1.663-4.108-3.713v-.743h8.216v.743c0 2.05-1.84 3.713-4.108 3.713z" stroke="#A4A4A4" stroke-width="1.3" stroke-miterlimit="10" stroke-linecap="round" stroke-linejoin="round"/></symbol><symbol fill="none" viewBox="0 0 40 40" id="icons--chart" xmlns="http://www.w3.org/2000/svg"><path d="M14.145 25.648a3.286 3.286 0 1 0 0-6.573 3.286 3.286 0 0 0 0 6.573zM27.29 32.22a3.286 3.286 0 1 0 0-6.572 3.286 3.286 0 0 0 0 6.572zm9.86-18.075l-8.282 11.897m-4.518 1.429l-7.263-3.647m-4.996 1.101L1 38.793M1 1v37.793m37.793 0H1m29.577-23.004l6.573-1.644 1.643 6.573" stroke="#A4A4A4" stroke-width="1.3" stroke-miterlimit="10" stroke-linecap="round" stroke-linejoin="round"/></symbol><symbol fill="none" viewBox="0 0 40 40" id="icons--head" xmlns="http://www.w3.org/2000/svg"><path d="M7.573 24.005h1.643v-9.86H7.573a4.923 4.923 0 0 0-4.93 4.93 4.923 4.923 0 0 0 4.93 4.93zm26.291 0H32.22v-9.86h1.644a4.923 4.923 0 0 1 4.93 4.93 4.923 4.923 0 0 1-4.93 4.93z" stroke="#A4A4A4" stroke-width="1.3" stroke-miterlimit="10" stroke-linecap="round" stroke-linejoin="round"/><path d="M9.216 14.145V10.86C9.216 5.42 15.279 1 20.718 1c5.439 0 11.502 4.42 11.502 9.86v3.285m0 9.86c0 3.614-3.286 6.572-6.572 6.572m8.692.789c.592.427 1.134.887 1.627 1.38 1.79 1.758 2.826 3.829 2.826 6.047M1 38.793c0-4.847 4.913-8.988 11.864-10.664m11.141 4.091h-3.287c-.904 0-1.643-.74-1.643-1.643 0-.904.74-1.643 1.643-1.643h3.287c.903 0 1.643.74 1.643 1.643 0 .904-.74 1.643-1.643 1.643z" stroke="#A4A4A4" stroke-width="1.3" stroke-miterlimit="10" stroke-linecap="round" stroke-linejoin="round"/></symbol><symbol fill="none" viewBox="0 0 40 27" id="icons--money" xmlns="http://www.w3.org/2000/svg"><path d="M32.22 25.648H2.643c-.904 0-1.643-.74-1.643-1.643V7.573c0-.904.74-1.644 1.643-1.644H32.22c.904 0 1.644.74 1.644 1.644v16.431a1.65 1.65 0 0 1-1.644 1.644z" stroke="#A4A4A4" stroke-width="1.3" stroke-miterlimit="10" stroke-linecap="round" stroke-linejoin="round"/><path d="M33.864 20.718h3.286c.904 0 1.643-.74 1.643-1.643V2.643c0-.904-.74-1.643-1.643-1.643H7.573c-.904 0-1.644.74-1.644 1.643V5.93" stroke="#A4A4A4" stroke-width="1.3" stroke-miterlimit="10" stroke-linecap="round" stroke-linejoin="round"/><path d="M17.432 20.718a4.93 4.93 0 1 0 0-9.859 4.93 4.93 0 0 0 0 9.86z" stroke="#A4A4A4" stroke-width="1.3" stroke-miterlimit="10" stroke-linecap="round" stroke-linejoin="round"/></symbol><symbol fill="none" viewBox="0 0 38 38" id="icons--portfolio" xmlns="http://www.w3.org/2000/svg"><path d="M12.502 7.573v-4.93c0-.904.74-1.643 1.643-1.643h9.86c.903 0 1.643.74 1.643 1.643v4.93M14.145 24.005H1V9.215c0-.903.74-1.642 1.643-1.642h32.864c.904 0 1.643.74 1.643 1.643v14.789H24.005m11.502 4.929v6.573c0 .904-.74 1.643-1.643 1.643H4.286c-.903 0-1.643-.74-1.643-1.643v-6.573" stroke="#A4A4A4" stroke-width="1.3" stroke-miterlimit="10" stroke-linecap="round" stroke-linejoin="round"/><path d="M24.005 20.718h-9.86v6.573h9.86v-6.573z" stroke="#A4A4A4" stroke-width="1.3" stroke-miterlimit="10" stroke-linecap="round" stroke-linejoin="round"/></symbol><symbol fill="none" viewBox="0 0 38 38" id="icons--rocket" xmlns="http://www.w3.org/2000/svg"><path d="M6.83 27.286c-1.215.378-2.398 1.084-3.417 2.086a8.342 8.342 0 0 0-2.087 3.418c-.378 1.216-.427 2.465-.148 3.599 1.134.28 2.383.23 3.599-.148 1.216-.378 2.399-1.085 3.417-2.087a8.342 8.342 0 0 0 2.087-3.418M6.979 16.638l-4.65 4.65h4.65c4.173 1.561 7.361 4.535 9.3 9.3v4.65l4.65-4.65-2.317-6.967c5.62-.394 10.434-2.399 13.95-6.967 3.32-4.6 4.388-9.662 3.484-15.1-5.767-1.332-10.845-.296-15.1 3.483-4.125 4.321-6.458 8.972-6.968 13.95l-7-2.35z" stroke="#A4A4A4" stroke-width="1.3" stroke-miterlimit="10" stroke-linecap="round" stroke-linejoin="round"/><path d="M27.896 12.957a3.286 3.286 0 1 0 0-6.573 3.286 3.286 0 0 0 0 6.573z" stroke="#A4A4A4" stroke-width="1.3" stroke-miterlimit="10" stroke-linecap="round" stroke-linejoin="round"/></symbol><symbol fill="none" viewBox="0 0 48 34" id="icons--school" xmlns="http://www.w3.org/2000/svg"><path d="M45.267 11.06L23.133 21.122 1 11.061 23.133 1l22.134 10.06z" stroke="#A4A4A4" stroke-width="1.3" stroke-miterlimit="10" stroke-linecap="round" stroke-linejoin="round"/><path d="M37.218 15.085v14.547c-9.557 4.669-18.974 4.85-28.17 0V15.085m36.219-4.025v18.11m0 4.024a2.012 2.012 0 1 0 0-4.024 2.012 2.012 0 0 0 0 4.024z" stroke="#A4A4A4" stroke-width="1.3" stroke-miterlimit="10" stroke-linecap="round" stroke-linejoin="round"/></symbol><symbol fill="none" viewBox="0 0 40 33" id="icons--share" xmlns="http://www.w3.org/2000/svg"><path d="M24.005 27.29l-1.15 3.435a1.653 1.653 0 0 1-2.005 1.068l-8.233-2.35a1.634 1.634 0 0 1-1.068-2.185l.97-2.415" stroke="#A4A4A4" stroke-width="1.3" stroke-miterlimit="10" stroke-linejoin="round"/><path d="M35.03 1.476l-1.166 1.167L5.93 10.86H2.643C1.74 10.86 1 11.6 1 12.502v8.216c0 .904.74 1.643 1.643 1.643H5.93l27.934 8.216 1.166 1.167c.312.312.723.476 1.167.476h.97c.903 0 1.642-.74 1.642-1.643V2.643A1.647 1.647 0 0 0 37.166 1h-.97c-.443 0-.87.18-1.166.476zM5.93 10.86v11.5" stroke="#A4A4A4" stroke-width="1.3" stroke-miterlimit="10" stroke-linecap="round" stroke-linejoin="round"/></symbol><symbol fill="none" viewBox="0 0 32 40" id="icons--shield" xmlns="http://www.w3.org/2000/svg"><path d="M15.789 1C11.729 4.286 6.636 4.993 1 4.286V16.84A21.34 21.34 0 0 0 9.249 33.7l6.54 5.093 6.54-5.094a21.339 21.339 0 0 0 8.248-16.859V4.286c-5.636.707-10.73 0-14.788-3.286z" stroke="#A4A4A4" stroke-width="1.3" stroke-miterlimit="10" stroke-linecap="round" stroke-linejoin="round"/><path d="M15.789 6.094c-2.958 2.399-5.735 3.631-9.86 3.122v7.854a14.79 14.79 0 0 0 5.324 11.355l4.536 3.779 4.535-3.78a14.79 14.79 0 0 0 5.324-11.354V9.216c-4.125.51-6.902-.723-9.86-3.122z" stroke="#A4A4A4" stroke-width="1.3" stroke-miterlimit="10" stroke-linecap="round" stroke-linejoin="round"/></symbol><symbol fill="none" viewBox="0 0 40 40" id="icons--trophy" xmlns="http://www.w3.org/2000/svg"><path d="M19.896 27.29c-6.802 0-12.323-5.52-12.323-12.323V1H32.22v13.967c0 6.803-5.52 12.324-12.323 12.324z" stroke="#A4A4A4" stroke-width="1.3" stroke-miterlimit="10" stroke-linecap="round" stroke-linejoin="round"/><path d="M19.896 27.29c-.821 3.287.378 9.383-7.114 11.503h14.23c-7.494-2.12-6.294-8.216-7.116-11.502zM32.22 15.789V2.643h6.573v6.573a6.57 6.57 0 0 1-6.573 6.573zm-24.647 0V2.643H1v6.573a6.57 6.57 0 0 0 6.573 6.573z" stroke="#A4A4A4" stroke-width="1.3" stroke-miterlimit="10" stroke-linecap="round" stroke-linejoin="round"/></symbol><symbol id="ruble" viewBox="0 0 18.9 23.6" xmlns="http://www.w3.org/2000/svg"><style>.kst0{fill:#103eb4}</style><path class="kst0" d="M2.6 23.6V20H0v-3.2h2.6v-2.6H0v-4.1h2.6V0h7.5c3 0 5.2.6 6.6 1.8 1.4 1.2 2.1 2.9 2.1 5.1 0 1.3-.3 2.5-.9 3.6-.6 1.1-1.5 2-2.9 2.7-1.3.7-3.1 1-5.4 1h-2v2.6h5.1V20H7.6v3.5h-5zm6.7-13.4c1.4 0 2.5-.2 3.3-.7.8-.5 1.3-1.3 1.3-2.3 0-2-1.3-3-4-3H7.6v6.1h1.7z"/></symbol></svg>