<?xml version="1.0" encoding="utf-8"?><svg xmlns="http://www.w3.org/2000/svg" xmlns:xlink="http://www.w3.org/1999/xlink"><symbol fill="none" viewBox="0 0 33 36" id="icons--bell" xmlns="http://www.w3.org/2000/svg"><path d="M28.112 19.567V12.14C28.112 6.347 23.02 1 16.61 1 10.202 1 5.108 6.347 5.108 12.14v7.427C5.108 25.51 1 30.707 1 30.707h31.22s-4.108-5.198-4.108-11.14z" stroke="#A4A4A4" stroke-width="1.3" stroke-miterlimit="10" stroke-linecap="round" stroke-linejoin="round"/><path d="M16.61 35.163c-2.267 0-4.108-1.663-4.108-3.713v-.743h8.216v.743c0 2.05-1.84 3.713-4.108 3.713z" stroke="#A4A4A4" stroke-width="1.3" stroke-miterlimit="10" stroke-linecap="round" stroke-linejoin="round"/></symbol><symbol fill="none" viewBox="0 0 40 40" id="icons--chart" xmlns="http://www.w3.org/2000/svg"><path d="M14.145 25.648a3.286 3.286 0 1 0 0-6.573 3.286 3.286 0 0 0 0 6.573zM27.29 32.22a3.286 3.286 0 1 0 0-6.572 3.286 3.286 0 0 0 0 6.572zm9.86-18.075l-8.282 11.897m-4.518 1.429l-7.263-3.647m-4.996 1.101L1 38.793M1 1v37.793m37.793 0H1m29.577-23.004l6.573-1.644 1.643 6.573" stroke="#A4A4A4" stroke-width="1.3" stroke-miterlimit="10" stroke-linecap="round" stroke-linejoin="round"/></symbol><symbol fill="none" viewBox="0 0 40 40" id="icons--head" xmlns="http://www.w3.org/2000/svg"><path d="M7.573 24.005h1.643v-9.86H7.573a4.923 4.923 0 0 0-4.93 4.93 4.923 4.923 0 0 0 4.93 4.93zm26.291 0H32.22v-9.86h1.644a4.923 4.923 0 0 1 4.93 4.93 4.923 4.923 0 0 1-4.93 4.93z" stroke="#A4A4A4" stroke-width="1.3" stroke-miterlimit="10" stroke-linecap="round" stroke-linejoin="round"/><path d="M9.216 14.145V10.86C9.216 5.42 15.279 1 20.718 1c5.439 0 11.502 4.42 11.502 9.86v3.285m0 9.86c0 3.614-3.286 6.572-6.572 6.572m8.692.789c.592.427 1.134.887 1.627 1.38 1.79 1.758 2.826 3.829 2.826 6.047M1 38.793c0-4.847 4.913-8.988 11.864-10.664m11.141 4.091h-3.287c-.904 0-1.643-.74-1.643-1.643 0-.904.74-1.643 1.643-1.643h3.287c.903 0 1.643.74 1.643 1.643 0 .904-.74 1.643-1.643 1.643z" stroke="#A4A4A4" stroke-width="1.3" stroke-miterlimit="10" stroke-linecap="round" stroke-linejoin="round"/></symbol><symbol fill="none" viewBox="0 0 40 27" id="icons--money" xmlns="http://www.w3.org/2000/svg"><path d="M32.22 25.648H2.643c-.904 0-1.643-.74-1.643-1.643V7.573c0-.904.74-1.644 1.643-1.644H32.22c.904 0 1.644.74 1.644 1.644v16.431a1.65 1.65 0 0 1-1.644 1.644z" stroke="#A4A4A4" stroke-width="1.3" stroke-miterlimit="10" stroke-linecap="round" stroke-linejoin="round"/><path d="M33.864 20.718h3.286c.904 0 1.643-.74 1.643-1.643V2.643c0-.904-.74-1.643-1.643-1.643H7.573c-.904 0-1.644.74-1.644 1.643V5.93" stroke="#A4A4A4" stroke-width="1.3" stroke-miterlimit="10" stroke-linecap="round" stroke-linejoin="round"/><path d="M17.432 20.718a4.93 4.93 0 1 0 0-9.859 4.93 4.93 0 0 0 0 9.86z" stroke="#A4A4A4" stroke-width="1.3" stroke-miterlimit="10" stroke-linecap="round" stroke-linejoin="round"/></symbol><symbol fill="none" viewBox="0 0 38 38" id="icons--portfolio" xmlns="http://www.w3.org/2000/svg"><path d="M12.502 7.573v-4.93c0-.904.74-1.643 1.643-1.643h9.86c.903 0 1.643.74 1.643 1.643v4.93M14.145 24.005H1V9.215c0-.903.74-1.642 1.643-1.642h32.864c.904 0 1.643.74 1.643 1.643v14.789H24.005m11.502 4.929v6.573c0 .904-.74 1.643-1.643 1.643H4.286c-.903 0-1.643-.74-1.643-1.643v-6.573" stroke="#A4A4A4" stroke-width="1.3" stroke-miterlimit="10" stroke-linecap="round" stroke-linejoin="round"/><path d="M24.005 20.718h-9.86v6.573h9.86v-6.573z" stroke="#A4A4A4" stroke-width="1.3" stroke-miterlimit="10" stroke-linecap="round" stroke-linejoin="round"/></symbol><symbol fill="none" viewBox="0 0 38 38" id="icons--rocket" xmlns="http://www.w3.org/2000/svg"><path d="M6.83 27.286c-1.215.378-2.398 1.084-3.417 2.086a8.342 8.342 0 0 0-2.087 3.418c-.378 1.216-.427 2.465-.148 3.599 1.134.28 2.383.23 3.599-.148 1.216-.378 2.399-1.085 3.417-2.087a8.342 8.342 0 0 0 2.087-3.418M6.979 16.638l-4.65 4.65h4.65c4.173 1.561 7.361 4.535 9.3 9.3v4.65l4.65-4.65-2.317-6.967c5.62-.394 10.434-2.399 13.95-6.967 3.32-4.6 4.388-9.662 3.484-15.1-5.767-1.332-10.845-.296-15.1 3.483-4.125 4.321-6.458 8.972-6.968 13.95l-7-2.35z" stroke="#A4A4A4" stroke-width="1.3" stroke-miterlimit="10" stroke-linecap="round" stroke-linejoin="round"/><path d="M27.896 12.957a3.286 3.286 0 1 0 0-6.573 3.286 3.286 0 0 0 0 6.573z" stroke="#A4A4A4" stroke-width="1.3" stroke-miterlimit="10" stroke-linecap="round" stroke-linejoin="round"/></symbol><symbol fill="none" viewBox="0 0 48 34" id="icons--school" xmlns="http://www.w3.org/2000/svg"><path d="M45.267 11.06L23.133 21.122 1 11.061 23.133 1l22.134 10.06z" stroke="#A4A4A4" stroke-width="1.3" stroke-miterlimit="10" stroke-linecap="round" stroke-linejoin="round"/><path d="M37.218 15.085v14.547c-9.557 4.669-18.974 4.85-28.17 0V15.085m36.219-4.025v18.11m0 4.024a2.012 2.012 0 1 0 0-4.024 2.012 2.012 0 0 0 0 4.024z" stroke="#A4A4A4" stroke-width="1.3" stroke-miterlimit="10" stroke-linecap="round" stroke-linejoin="round"/></symbol><symbol fill="none" viewBox="0 0 40 33" id="icons--share" xmlns="http://www.w3.org/2000/svg"><path d="M24.005 27.29l-1.15 3.435a1.653 1.653 0 0 1-2.005 1.068l-8.233-2.35a1.634 1.634 0 0 1-1.068-2.185l.97-2.415" stroke="#A4A4A4" stroke-width="1.3" stroke-miterlimit="10" stroke-linejoin="round"/><path d="M35.03 1.476l-1.166 1.167L5.93 10.86H2.643C1.74 10.86 1 11.6 1 12.502v8.216c0 .904.74 1.643 1.643 1.643H5.93l27.934 8.216 1.166 1.167c.312.312.723.476 1.167.476h.97c.903 0 1.642-.74 1.642-1.643V2.643A1.647 1.647 0 0 0 37.166 1h-.97c-.443 0-.87.18-1.166.476zM5.93 10.86v11.5" stroke="#A4A4A4" stroke-width="1.3" stroke-miterlimit="10" stroke-linecap="round" stroke-linejoin="round"/></symbol><symbol fill="none" viewBox="0 0 32 40" id="icons--shield" xmlns="http://www.w3.org/2000/svg"><path d="M15.789 1C11.729 4.286 6.636 4.993 1 4.286V16.84A21.34 21.34 0 0 0 9.249 33.7l6.54 5.093 6.54-5.094a21.339 21.339 0 0 0 8.248-16.859V4.286c-5.636.707-10.73 0-14.788-3.286z" stroke="#A4A4A4" stroke-width="1.3" stroke-miterlimit="10" stroke-linecap="round" stroke-linejoin="round"/><path d="M15.789 6.094c-2.958 2.399-5.735 3.631-9.86 3.122v7.854a14.79 14.79 0 0 0 5.324 11.355l4.536 3.779 4.535-3.78a14.79 14.79 0 0 0 5.324-11.354V9.216c-4.125.51-6.902-.723-9.86-3.122z" stroke="#A4A4A4" stroke-width="1.3" stroke-miterlimit="10" stroke-linecap="round" stroke-linejoin="round"/></symbol><symbol fill="none" viewBox="0 0 40 40" id="icons--trophy" xmlns="http://www.w3.org/2000/svg"><path d="M19.896 27.29c-6.802 0-12.323-5.52-12.323-12.323V1H32.22v13.967c0 6.803-5.52 12.324-12.323 12.324z" stroke="#A4A4A4" stroke-width="1.3" stroke-miterlimit="10" stroke-linecap="round" stroke-linejoin="round"/><path d="M19.896 27.29c-.821 3.287.378 9.383-7.114 11.503h14.23c-7.494-2.12-6.294-8.216-7.116-11.502zM32.22 15.789V2.643h6.573v6.573a6.57 6.57 0 0 1-6.573 6.573zm-24.647 0V2.643H1v6.573a6.57 6.57 0 0 0 6.573 6.573z" stroke="#A4A4A4" stroke-width="1.3" stroke-miterlimit="10" stroke-linecap="round" stroke-linejoin="round"/></symbol><symbol id="ruble" viewBox="0 0 18.9 23.6" xmlns="http://www.w3.org/2000/svg"><style>.kst0{fill:#103eb4}</style><path class="kst0" d="M2.6 23.6V20H0v-3.2h2.6v-2.6H0v-4.1h2.6V0h7.5c3 0 5.2.6 6.6 1.8 1.4 1.2 2.1 2.9 2.1 5.1 0 1.3-.3 2.5-.9 3.6-.6 1.1-1.5 2-2.9 2.7-1.3.7-3.1 1-5.4 1h-2v2.6h5.1V20H7.6v3.5h-5zm6.7-13.4c1.4 0 2.5-.2 3.3-.7.8-.5 1.3-1.3 1.3-2.3 0-2-1.3-3-4-3H7.6v6.1h1.7z"/></symbol><symbol fill="none" viewBox="0 0 82 53" id="Загрузки--Arrow_1" xmlns="http://www.w3.org/2000/svg"><path d="M40.245 38.199v.375-.375zM4.754 37.93a.375.375 0 0 0 0 .53l2.386 2.387a.375.375 0 1 0 .53-.53l-2.12-2.122 2.12-2.121a.375.375 0 0 0-.53-.53L4.755 37.93zm.265.64h1.006v-.75H5.02v.75zm4.026 0h2.013v-.75H9.045v.75zm5.032 0h2.013v-.75h-2.013v.75zm5.033.001h2.012v-.75H19.11v.75zm5.032 0h2.013v-.75h-2.013v.75zm5.032 0l2.013.001v-.75h-2.013v.75zm5.032.001h2.013v-.75h-2.013v.75zm5.033 0h1.006v-.75H39.24v.75zm1.006 0c.342 0 .683-.005 1.022-.015l-.023-.75c-.331.01-.664.016-.999.016v.75zm4.068-.252a32.12 32.12 0 0 0 2.013-.317l-.14-.736c-.648.123-1.304.226-1.967.31l.094.743zm4.984-1.03a31.787 31.787 0 0 0 1.938-.633l-.255-.705c-.622.225-1.253.431-1.893.618l.21.72zm4.758-1.811c.615-.293 1.22-.604 1.812-.934l-.364-.655a31.2 31.2 0 0 1-1.77.911l.322.678zm4.41-2.545a32.28 32.28 0 0 0 1.64-1.208l-.462-.59c-.522.41-1.056.803-1.604 1.18l.425.618zm3.952-3.208c.492-.468.97-.952 1.432-1.45l-.55-.51c-.451.487-.918.96-1.399 1.417l.517.543zm3.402-3.787c.412-.539.809-1.091 1.187-1.656l-.623-.417a32.36 32.36 0 0 1-1.16 1.617l.596.456zm2.768-4.271a32.94 32.94 0 0 0 .913-1.822l-.68-.315a31.53 31.53 0 0 1-.893 1.78l.66.357zm2.062-4.654c.225-.64.43-1.288.614-1.945l-.722-.202c-.18.64-.38 1.273-.6 1.898l.708.249zm1.299-4.923c.12-.666.219-1.339.296-2.017L71.5 9.99a30.635 30.635 0 0 1-.29 1.97l.739.132zm.498-5.066a32.15 32.15 0 0 0-.028-2.038l-.75.034c.03.667.04 1.331.028 1.99l.75.014zm-.31-5.08a33.14 33.14 0 0 0-.157-1.01l-.739.127c.056.33.108.659.154.987l.742-.103zM40.246 38.2v.75-.75zm-35.757-.533a.75.75 0 0 0 0 1.06L9.26 43.5a.75.75 0 1 0 1.061-1.06L6.08 38.195l4.243-4.242a.75.75 0 0 0-1.06-1.06l-4.774 4.772zm.53 1.28h1.006v-1.5H5.02v1.5zm4.026 0h2.013v-1.5H9.045v1.5zm5.032 0h2.013v-1.5h-2.013v1.5zm5.033.001h2.012v-1.5H19.11v1.5zm5.032 0h2.013v-1.5h-2.013v1.5zm5.032 0l2.013.001v-1.5h-2.013v1.5zm5.032.001h2.013v-1.5h-2.013v1.5zm5.033 0h1.006v-1.5H39.24v1.5zm1.006 0c.346 0 .69-.005 1.034-.015l-.047-1.5c-.327.01-.656.016-.987.016v1.5zm4.114-.254a32.514 32.514 0 0 0 2.037-.321l-.28-1.474c-.64.122-1.288.224-1.943.306l.186 1.489zm5.043-1.043a32.144 32.144 0 0 0 1.96-.64l-.51-1.41a31.65 31.65 0 0 1-1.87.61l.42 1.44zm4.814-1.833a32.327 32.327 0 0 0 1.834-.944l-.73-1.311a30.3 30.3 0 0 1-1.748.9l.644 1.355zm4.461-2.574c.567-.39 1.12-.798 1.66-1.222l-.926-1.18c-.515.405-1.044.794-1.584 1.166l.85 1.236zM62.675 30a32.33 32.33 0 0 0 1.449-1.467l-1.1-1.02c-.446.48-.907.948-1.382 1.4L62.675 30zm3.441-3.83c.418-.546.819-1.105 1.202-1.676l-1.246-.835a31.275 31.275 0 0 1-1.147 1.598l1.191.912zm2.8-4.322c.327-.604.636-1.218.924-1.843l-1.361-.63a31.08 31.08 0 0 1-.882 1.759l1.32.714zm2.087-4.708a32.79 32.79 0 0 0 .621-1.967l-1.444-.406a30.838 30.838 0 0 1-.592 1.876l1.415.497zm1.314-4.98c.121-.675.221-1.355.3-2.042l-1.49-.17c-.075.654-.17 1.303-.286 1.946l1.476.266zm.504-5.126a33.07 33.07 0 0 0-.028-2.062l-1.499.068c.03.66.039 1.315.027 1.967l1.5.027zm-.313-5.138c-.048-.34-.1-.68-.16-1.022l-1.478.254c.056.325.107.65.152.975l1.486-.207z" fill="#27CDC2"/></symbol></svg>