<?xml version="1.0" encoding="utf-8"?>
<!-- Generator: Adobe Illustrator 21.1.0, SVG Export Plug-In . SVG Version: 6.00 Build 0)  -->
<svg version="1.1" id="Слой_1" xmlns="http://www.w3.org/2000/svg" xmlns:xlink="http://www.w3.org/1999/xlink" x="0px" y="0px"
	 viewBox="0 0 18.9 23.6" style="enable-background:new 0 0 18.9 23.6;" xml:space="preserve">
<style type="text/css">
	.st0{fill:#103EB4;}
</style>
<path class="st0" d="M2.6,23.6V20H0v-3.2h2.6v-2.6H0v-4.1h2.6V0h7.5c3,0,5.2,0.6,6.6,1.8c1.4,1.2,2.1,2.9,2.1,5.1
	c0,1.3-0.3,2.5-0.9,3.6c-0.6,1.1-1.5,2-2.9,2.7c-1.3,0.7-3.1,1-5.4,1H7.6v2.6h5.1V20H7.6v3.5H2.6z M9.3,10.2c1.4,0,2.5-0.2,3.3-0.7
	c0.8-0.5,1.3-1.3,1.3-2.3c0-2-1.3-3-4-3H7.6v6.1H9.3z"/>
</svg>
